<mxfile host="app.diagrams.net" modified="2024-05-31T15:44:53.473Z" agent="Mozilla/5.0 (Windows NT 10.0; Win64; x64) AppleWebKit/537.36 (KHTML, like Gecko) Chrome/125.0.0.0 Safari/537.36" etag="c6o4cqY6MOsxFDNcN8qB" version="24.4.13" type="device">
  <diagram name="Page-1" id="j2B3wbdTVqijnxyjZZBZ">
    <mxGraphModel dx="880" dy="434" grid="1" gridSize="10" guides="1" tooltips="1" connect="1" arrows="1" fold="1" page="1" pageScale="1" pageWidth="827" pageHeight="1169" math="0" shadow="0">
      <root>
        <mxCell id="0" />
        <mxCell id="1" parent="0" />
        <mxCell id="MLBrsW6rerJBoEcqBM6S-1" value="Client" style="rounded=0;whiteSpace=wrap;html=1;" parent="1" vertex="1">
          <mxGeometry x="200" y="110" width="120" height="60" as="geometry" />
        </mxCell>
        <mxCell id="MLBrsW6rerJBoEcqBM6S-2" value="Server" style="rounded=0;whiteSpace=wrap;html=1;" parent="1" vertex="1">
          <mxGeometry x="500" y="110" width="120" height="60" as="geometry" />
        </mxCell>
        <mxCell id="MLBrsW6rerJBoEcqBM6S-3" value="" style="endArrow=none;html=1;rounded=0;" parent="1" edge="1">
          <mxGeometry width="50" height="50" relative="1" as="geometry">
            <mxPoint x="260" y="590" as="sourcePoint" />
            <mxPoint x="260" y="170" as="targetPoint" />
          </mxGeometry>
        </mxCell>
        <mxCell id="MLBrsW6rerJBoEcqBM6S-4" value="" style="endArrow=none;html=1;rounded=0;" parent="1" edge="1">
          <mxGeometry width="50" height="50" relative="1" as="geometry">
            <mxPoint x="560" y="580" as="sourcePoint" />
            <mxPoint x="559.5" y="170" as="targetPoint" />
          </mxGeometry>
        </mxCell>
        <mxCell id="MLBrsW6rerJBoEcqBM6S-5" value="Generate private, public key pair" style="text;html=1;align=center;verticalAlign=middle;whiteSpace=wrap;rounded=0;" parent="1" vertex="1">
          <mxGeometry x="155" y="230" width="110" height="40" as="geometry" />
        </mxCell>
        <mxCell id="MLBrsW6rerJBoEcqBM6S-6" value="" style="endArrow=classic;html=1;rounded=0;" parent="1" edge="1">
          <mxGeometry width="50" height="50" relative="1" as="geometry">
            <mxPoint x="270" y="270" as="sourcePoint" />
            <mxPoint x="560" y="270" as="targetPoint" />
          </mxGeometry>
        </mxCell>
        <mxCell id="MLBrsW6rerJBoEcqBM6S-7" value="send public key to server" style="edgeLabel;html=1;align=center;verticalAlign=middle;resizable=0;points=[];" parent="MLBrsW6rerJBoEcqBM6S-6" vertex="1" connectable="0">
          <mxGeometry x="-0.016" y="-4" relative="1" as="geometry">
            <mxPoint x="1" y="-11" as="offset" />
          </mxGeometry>
        </mxCell>
        <mxCell id="MLBrsW6rerJBoEcqBM6S-8" value="" style="endArrow=classic;html=1;rounded=0;" parent="1" edge="1">
          <mxGeometry width="50" height="50" relative="1" as="geometry">
            <mxPoint x="270" y="210" as="sourcePoint" />
            <mxPoint x="560" y="210" as="targetPoint" />
          </mxGeometry>
        </mxCell>
        <mxCell id="MLBrsW6rerJBoEcqBM6S-9" value="Establish Connection" style="edgeLabel;html=1;align=center;verticalAlign=middle;resizable=0;points=[];" parent="MLBrsW6rerJBoEcqBM6S-8" vertex="1" connectable="0">
          <mxGeometry x="0.0207" y="4" relative="1" as="geometry">
            <mxPoint as="offset" />
          </mxGeometry>
        </mxCell>
        <mxCell id="MLBrsW6rerJBoEcqBM6S-11" value="encrypt m1 and m2&amp;nbsp;&lt;div&gt;c1 = E(m1)&lt;/div&gt;&lt;div&gt;c2 = E(m2)&lt;/div&gt;" style="text;html=1;align=center;verticalAlign=middle;whiteSpace=wrap;rounded=0;" parent="1" vertex="1">
          <mxGeometry x="170" y="390" width="80" height="80" as="geometry" />
        </mxCell>
        <mxCell id="MLBrsW6rerJBoEcqBM6S-12" value="" style="endArrow=classic;html=1;rounded=0;" parent="1" edge="1">
          <mxGeometry width="50" height="50" relative="1" as="geometry">
            <mxPoint x="270" y="445" as="sourcePoint" />
            <mxPoint x="560" y="445" as="targetPoint" />
          </mxGeometry>
        </mxCell>
        <mxCell id="MLBrsW6rerJBoEcqBM6S-13" value="send c1 and c2" style="edgeLabel;html=1;align=center;verticalAlign=middle;resizable=0;points=[];" parent="MLBrsW6rerJBoEcqBM6S-12" vertex="1" connectable="0">
          <mxGeometry x="-0.016" y="-4" relative="1" as="geometry">
            <mxPoint x="1" y="-9" as="offset" />
          </mxGeometry>
        </mxCell>
        <mxCell id="MLBrsW6rerJBoEcqBM6S-14" value="" style="endArrow=classic;html=1;rounded=0;entryX=0.5;entryY=0;entryDx=0;entryDy=0;" parent="1" target="MLBrsW6rerJBoEcqBM6S-11" edge="1" source="MLBrsW6rerJBoEcqBM6S-10">
          <mxGeometry width="50" height="50" relative="1" as="geometry">
            <mxPoint x="210" y="310" as="sourcePoint" />
            <mxPoint x="260" y="260" as="targetPoint" />
          </mxGeometry>
        </mxCell>
        <mxCell id="MLBrsW6rerJBoEcqBM6S-16" value="compute&amp;nbsp;E(m1 + m2) = (c1 · c2) mod n&lt;sup&gt;2&lt;/sup&gt;" style="text;html=1;align=center;verticalAlign=middle;whiteSpace=wrap;rounded=0;" parent="1" vertex="1">
          <mxGeometry x="570" y="430" width="130" height="60" as="geometry" />
        </mxCell>
        <mxCell id="MLBrsW6rerJBoEcqBM6S-10" value="Generate two messages m1 and m2" style="text;html=1;align=center;verticalAlign=middle;whiteSpace=wrap;rounded=0;" parent="1" vertex="1">
          <mxGeometry x="170" y="330" width="80" height="30" as="geometry" />
        </mxCell>
        <mxCell id="Kh6AqNpgJwURx9vWwV4f-2" value="generate n from public key" style="text;html=1;align=center;verticalAlign=middle;whiteSpace=wrap;rounded=0;" vertex="1" parent="1">
          <mxGeometry x="570" y="270" width="110" height="50" as="geometry" />
        </mxCell>
        <mxCell id="Kh6AqNpgJwURx9vWwV4f-3" value="" style="endArrow=classic;html=1;rounded=0;" edge="1" parent="1">
          <mxGeometry width="50" height="50" relative="1" as="geometry">
            <mxPoint x="550" y="520" as="sourcePoint" />
            <mxPoint x="270" y="521" as="targetPoint" />
          </mxGeometry>
        </mxCell>
        <mxCell id="Kh6AqNpgJwURx9vWwV4f-13" style="edgeStyle=orthogonalEdgeStyle;rounded=0;orthogonalLoop=1;jettySize=auto;html=1;exitX=0.5;exitY=1;exitDx=0;exitDy=0;entryX=0.5;entryY=0;entryDx=0;entryDy=0;" edge="1" parent="1" source="Kh6AqNpgJwURx9vWwV4f-7" target="Kh6AqNpgJwURx9vWwV4f-11">
          <mxGeometry relative="1" as="geometry" />
        </mxCell>
        <mxCell id="Kh6AqNpgJwURx9vWwV4f-7" value="decrypt E(m1 + m2)" style="text;html=1;align=center;verticalAlign=middle;whiteSpace=wrap;rounded=0;" vertex="1" parent="1">
          <mxGeometry x="170" y="490" width="80" height="80" as="geometry" />
        </mxCell>
        <mxCell id="Kh6AqNpgJwURx9vWwV4f-10" value="send&amp;nbsp;&lt;span style=&quot;font-size: 12px; text-wrap: wrap; background-color: rgb(251, 251, 251);&quot;&gt;E(m1 + m2)&lt;/span&gt;" style="edgeLabel;html=1;align=center;verticalAlign=middle;resizable=0;points=[];" vertex="1" connectable="0" parent="1">
          <mxGeometry x="414" y="520" as="geometry">
            <mxPoint x="1" y="-4" as="offset" />
          </mxGeometry>
        </mxCell>
        <mxCell id="Kh6AqNpgJwURx9vWwV4f-11" value="confirm E(m1 + m2) = E(m1) · E(m2)" style="text;html=1;align=center;verticalAlign=middle;whiteSpace=wrap;rounded=0;" vertex="1" parent="1">
          <mxGeometry x="145" y="610" width="130" height="80" as="geometry" />
        </mxCell>
        <mxCell id="Kh6AqNpgJwURx9vWwV4f-16" value="" style="endArrow=classic;html=1;rounded=0;entryX=0.5;entryY=0;entryDx=0;entryDy=0;" edge="1" parent="1" target="MLBrsW6rerJBoEcqBM6S-10">
          <mxGeometry width="50" height="50" relative="1" as="geometry">
            <mxPoint x="210" y="275" as="sourcePoint" />
            <mxPoint x="260" y="225" as="targetPoint" />
          </mxGeometry>
        </mxCell>
      </root>
    </mxGraphModel>
  </diagram>
</mxfile>
